<?xml version="1.0" standalone="no"?>
<!DOCTYPE svg PUBLIC "-//W3C//DTD SVG 20010904//EN"
 "http://www.w3.org/TR/2001/REC-SVG-20010904/DTD/svg10.dtd">
<svg version="1.0" xmlns="http://www.w3.org/2000/svg"
 width="512.000000pt" height="512.000000pt" viewBox="0 0 512.000000 512.000000"
 preserveAspectRatio="xMidYMid meet">
<metadata>
Created by potrace 1.14, written by Peter Selinger 2001-2017
</metadata>
<g transform="translate(0.000000,512.000000) scale(0.100000,-0.100000)"
fill="#000000" stroke="none">
<path d="M2322 4307 c-44 -14 -116 -78 -137 -124 -10 -20 -20 -59 -24 -87 l-6
-50 -81 -18 c-337 -73 -673 -258 -924 -508 -163 -162 -260 -290 -365 -485 -37
-70 -116 -257 -128 -305 -5 -20 -25 -33 -89 -63 -46 -21 -101 -53 -123 -72
l-40 -35 -5 382 -5 382 -68 1 c-38 0 -73 -3 -78 -6 -6 -4 -9 -246 -7 -640 3
-633 4 -634 27 -698 51 -142 153 -257 286 -321 44 -21 96 -42 115 -45 30 -5
45 -19 94 -86 70 -94 161 -181 252 -241 106 -69 277 -137 384 -152 44 -6 46
-8 64 -58 50 -141 165 -241 305 -268 35 -6 333 -10 810 -10 728 1 758 2 814
21 132 45 222 133 262 257 16 49 18 50 63 57 120 18 285 86 406 168 78 53 202
176 250 249 31 47 44 57 74 63 56 10 192 80 238 122 91 84 152 186 178 299 13
62 15 152 13 680 l-2 609 -70 -2 c-38 -1 -73 -2 -77 -2 -5 -1 -8 -172 -8 -382
l0 -380 -66 47 c-36 26 -91 57 -122 70 l-55 22 -27 79 c-35 100 -62 161 -148
328 -25 49 -106 166 -173 251 -263 331 -669 585 -1079 672 -82 18 -85 20 -88
48 -7 73 -32 130 -74 171 -68 66 -99 73 -332 72 -110 -1 -216 -6 -234 -12z
m431 -156 c43 -17 49 -52 45 -268 -5 -224 -8 -235 -83 -301 -120 -105 -300
-68 -372 77 -15 30 -19 68 -21 235 -4 211 1 240 43 257 28 11 358 11 388 0z
m-592 -353 c2 -118 4 -132 37 -201 43 -93 107 -157 194 -197 63 -30 85 -34
158 -36 102 -2 168 19 247 77 62 46 94 86 128 162 30 64 32 79 34 195 l1 84
43 -7 c53 -9 172 -45 257 -78 528 -203 932 -650 1075 -1189 49 -183 59 -268
59 -463 0 -122 -4 -164 -21 -225 -94 -332 -349 -566 -680 -625 -64 -12 -266
-14 -1168 -12 -600 2 -1103 6 -1120 11 -337 86 -567 304 -657 623 -35 125 -32
375 8 569 119 584 538 1085 1091 1305 91 36 258 87 291 88 21 1 22 -3 23 -81z
m-1565 -1316 c-5 -8 -14 -65 -26 -157 -14 -109 -4 -342 18 -430 11 -44 19 -81
18 -83 -2 -1 -23 13 -47 32 -163 124 -206 358 -97 529 34 53 116 130 129 121
5 -3 7 -9 5 -12z m4024 -59 c18 -20 47 -66 63 -101 25 -54 31 -79 33 -150 3
-101 -20 -175 -76 -249 -34 -45 -118 -118 -127 -110 -2 3 6 42 19 88 19 71 23
109 22 244 0 146 -5 218 -20 299 -6 36 -7 39 -5 49 2 13 54 -28 91 -70z
m-1127 -1320 c-14 -39 -64 -90 -110 -113 l-48 -25 -761 -2 c-859 -3 -819 -6
-898 73 -24 23 -46 52 -49 63 l-5 21 939 0 c889 0 938 -1 932 -17z"/>
<path d="M1475 2940 c-290 -66 -510 -289 -578 -585 -20 -86 -16 -262 7 -350
79 -292 328 -516 628 -563 30 -5 504 -8 1054 -7 934 1 1004 2 1069 19 154 41
272 112 383 231 79 84 148 210 178 320 23 85 26 266 7 350 -56 247 -226 451
-452 544 -150 62 -110 60 -1211 60 -938 -1 -1010 -2 -1085 -19z m2135 -156
c221 -51 403 -233 454 -454 14 -61 16 -216 3 -265 -62 -234 -239 -406 -473
-461 -16 -4 -474 -8 -1019 -9 -1050 -2 -1042 -2 -1160 45 -127 51 -218 134
-307 281 -29 46 -59 162 -65 244 -18 283 182 552 462 619 92 22 2011 22 2105
0z"/>
<path d="M1733 2469 c-46 -14 -110 -82 -124 -131 -20 -76 0 -148 56 -203 88
-84 241 -63 307 44 17 28 22 51 22 102 0 77 -25 126 -83 164 -41 28 -129 40
-178 24z"/>
<path d="M3285 2476 c-5 -2 -22 -7 -37 -10 -35 -8 -93 -66 -113 -113 -20 -45
-13 -133 12 -173 64 -101 190 -128 287 -61 115 79 109 258 -10 331 -30 19
-116 35 -139 26z"/>
<path d="M2245 2034 c13 -100 85 -198 180 -244 72 -34 198 -34 270 0 95 47
168 144 182 245 l6 45 -322 0 -323 0 7 -46z"/>
</g>
</svg>
